<?xml version="1.0" standalone="no"?>
<!DOCTYPE svg PUBLIC "-//W3C//DTD SVG 20010904//EN"
 "http://www.w3.org/TR/2001/REC-SVG-20010904/DTD/svg10.dtd">
<svg version="1.0" xmlns="http://www.w3.org/2000/svg"
 width="130.000000pt" height="130.000000pt" viewBox="0 0 130.000000 130.000000"
 preserveAspectRatio="xMidYMid meet">

<g transform="translate(0.000000,130.000000) scale(0.100000,-0.100000)"
fill="white" stroke="none">
<path d="M277 1289 c-104 -25 -197 -103 -244 -204 l-28 -60 0 -375 0 -375 28
-61 c36 -77 104 -145 182 -181 l60 -28 375 0 375 0 60 28 c78 36 146 104 182
181 l28 61 0 375 0 375 -27 57 c-37 80 -105 149 -181 184 l-62 29 -355 2
c-195 1 -372 -3 -393 -8z m732 -115 c64 -19 127 -73 155 -134 20 -42 21 -65
24 -368 4 -382 0 -407 -76 -483 -75 -75 -100 -79 -462 -79 -362 0 -387 4 -461
79 -75 74 -79 99 -79 461 0 355 5 384 73 457 74 77 100 82 463 83 252 0 320
-3 363 -16z"/>
<path d="M946 1059 c-19 -15 -26 -30 -26 -55 0 -47 14 -70 50 -83 83 -28 147
72 85 134 -30 31 -73 32 -109 4z"/>
<path d="M538 965 c-94 -35 -182 -129 -208 -221 -18 -63 -9 -180 19 -237 29
-61 97 -128 158 -159 40 -19 64 -23 143 -23 112 0 163 20 234 91 71 71 91 122
91 234 0 79 -4 103 -23 143 -31 61 -98 129 -159 158 -59 29 -196 37 -255 14z
m228 -131 c68 -42 107 -117 102 -196 -12 -168 -191 -261 -334 -172 -68 42
-107 117 -102 196 12 168 191 261 334 172z"/>
</g>
</svg>
