<?xml version="1.0" standalone="no"?>
<!DOCTYPE svg PUBLIC "-//W3C//DTD SVG 20010904//EN"
 "http://www.w3.org/TR/2001/REC-SVG-20010904/DTD/svg10.dtd">
<svg version="1.0" xmlns="http://www.w3.org/2000/svg"
 width="804.000000pt" height="1016.000000pt" viewBox="0 0 804.000000 1016.000000"
 preserveAspectRatio="xMidYMid meet">

<g transform="translate(0.000000,1016.000000) scale(0.100000,-0.100000)"
fill="#000000" stroke="none">
<path d="M6218 10153 c39 -2 105 -2 145 0 39 1 7 3 -73 3 -80 0 -112 -2 -72
-3z"/>
<path d="M6842 10153 c219 -2 577 -2 795 0 219 1 40 2 -397 2 -437 0 -616 -1
-398 -2z"/>
<path d="M3696 9994 c-9 -22 5 -129 15 -113 15 28 15 129 0 129 -5 0 -12 -7
-15 -16z"/>
<path d="M3563 9993 c-22 -4 -23 -9 -23 -102 0 -54 3 -146 7 -204 6 -104 7
-107 30 -107 12 0 23 6 23 13 0 8 4 7 10 -3 5 -8 10 -13 10 -10 1 3 4 98 7
213 l5 207 -23 -1 c-13 -1 -34 -4 -46 -6z"/>
<path d="M3251 9668 c1 -145 5 -285 8 -313 l7 -50 7 70 c4 40 3 116 -4 175 -6
63 -8 158 -4 236 5 93 4 134 -4 139 -8 5 -11 -64 -10 -257z"/>
<path d="M3550 9508 c0 -35 2 -39 15 -28 17 14 16 57 -2 64 -9 4 -13 -6 -13
-36z"/>
<path d="M0 7970 c0 -994 1 -1050 18 -1050 28 0 142 35 222 69 300 125 531
395 617 721 25 93 28 122 27 260 0 137 -3 167 -28 260 -84 318 -295 573 -587
709 -80 37 -216 81 -252 81 -16 0 -17 -72 -17 -1050z"/>
<path d="M3750 8795 c0 -8 2 -15 4 -15 2 0 6 7 10 15 3 8 1 15 -4 15 -6 0 -10
-7 -10 -15z"/>
<path d="M2988 8753 c-3 -28 -3 -28 -106 -35 -104 -8 -162 -28 -258 -88 -17
-11 -45 -22 -62 -24 -36 -4 -68 -31 -119 -101 -20 -27 -42 -54 -49 -58 -8 -4
-14 -14 -14 -21 0 -7 -10 -24 -23 -38 -37 -40 -97 -187 -122 -298 -8 -36 -25
-108 -39 -160 -36 -135 -56 -241 -66 -350 -4 -52 -14 -117 -20 -144 -10 -38
-10 -50 0 -56 8 -5 10 -21 6 -46 -16 -106 -18 -124 -11 -141 6 -15 10 -12 21
17 l14 35 -1 -50 c-2 -75 -1 -77 21 -70 11 3 20 2 20 -3 0 -19 -50 -62 -72
-62 -13 0 -33 -7 -45 -15 -12 -9 -55 -24 -95 -34 -40 -10 -98 -33 -128 -50
-38 -21 -69 -31 -98 -31 -84 0 -152 -55 -215 -173 -42 -78 -145 -232 -182
-271 -46 -49 -68 -102 -73 -172 -5 -68 8 -100 58 -155 33 -37 46 -35 30 5 -14
39 -12 129 4 151 7 10 20 16 29 12 8 -3 23 3 33 14 9 10 23 19 30 19 21 0 84
60 84 81 0 10 13 25 29 33 16 9 48 36 72 61 24 24 52 45 61 45 9 0 23 12 30
28 9 18 22 28 41 30 24 3 27 0 28 -25 1 -21 3 -23 6 -8 8 31 20 39 27 17 12
-38 22 -150 15 -168 -17 -43 -6 -201 12 -172 6 9 9 4 9 -14 0 -16 -4 -28 -8
-28 -4 0 -9 -12 -10 -27 -1 -25 0 -26 12 -10 12 15 14 14 20 -20 9 -56 7 -85
-4 -78 -5 3 -10 23 -10 43 0 25 -3 32 -9 23 -7 -11 -11 -10 -19 5 -19 35 -25
5 -8 -45 21 -65 21 -77 0 -60 -15 12 -16 10 -9 -21 5 -19 9 -48 10 -65 1 -16
5 -51 10 -77 6 -41 5 -48 -9 -48 -10 0 -16 -9 -16 -25 0 -15 -6 -25 -14 -25
-15 0 -26 -21 -26 -50 0 -11 -6 -23 -13 -27 -8 -4 -17 -24 -20 -43 -5 -25 -4
-31 3 -20 9 13 11 13 20 0 7 -11 4 -20 -11 -32 -13 -11 -18 -24 -15 -35 3 -10
2 -32 -3 -49 -5 -19 -5 -37 1 -48 16 -28 1 -62 -35 -84 -19 -11 -37 -29 -40
-41 -5 -20 -2 -21 46 -17 29 2 37 1 20 -1 -27 -3 -33 -9 -33 -28 0 -16 4 -23
13 -19 17 6 42 -22 28 -30 -5 -4 -29 -2 -53 4 -24 5 -65 9 -93 9 l-50 0 30
-24 c20 -17 44 -25 70 -26 36 -1 37 -2 11 -8 l-28 -6 26 -28 c32 -34 32 -37 4
-37 -23 0 -62 -19 -43 -21 6 0 32 -3 60 -5 81 -8 90 -34 13 -39 -69 -4 -110
-16 -104 -30 2 -7 -4 -21 -15 -31 -21 -19 -20 -39 2 -39 7 0 15 -9 17 -19 3
-14 0 -17 -11 -13 -23 9 -41 -17 -28 -41 6 -11 16 -22 23 -25 10 -3 8 -10 -5
-25 -17 -19 -18 -22 -2 -46 9 -14 13 -31 9 -37 -4 -8 -3 -9 4 -5 8 5 12 -1 12
-16 0 -17 -3 -19 -9 -9 -7 11 -10 9 -16 -8 -8 -25 2 -44 18 -35 7 3 1 -4 -13
-15 -23 -20 -24 -22 -8 -32 16 -9 16 -12 3 -33 -12 -18 -13 -29 -4 -55 9 -26
8 -35 -5 -50 -11 -12 -12 -21 -6 -27 17 -17 0 -44 -25 -44 -30 0 -42 -18 -18
-26 57 -18 60 -21 30 -33 -24 -9 -26 -14 -17 -31 7 -13 7 -20 0 -20 -5 0 -10
-4 -10 -10 0 -5 7 -10 15 -10 8 0 15 -4 15 -10 0 -5 -4 -10 -8 -10 -5 0 -17
-6 -28 -14 -18 -14 -18 -15 11 -26 17 -7 24 -14 18 -17 -19 -7 -16 -20 12 -57
l25 -33 -42 -42 c-41 -39 -42 -41 -18 -41 22 0 25 -4 25 -32 0 -20 -7 -38 -17
-46 -28 -20 -23 -45 6 -38 18 4 29 1 39 -15 14 -20 15 -20 20 -2 4 15 5 14 6
-4 0 -13 7 -22 13 -20 15 2 20 -79 7 -104 -5 -9 -30 -22 -56 -29 -57 -15 -77
-30 -42 -30 35 0 42 -10 23 -31 -14 -16 -15 -21 -1 -48 13 -25 13 -31 2 -31
-23 0 -26 -16 -14 -64 7 -27 16 -43 22 -39 6 4 8 -2 4 -18 -4 -13 -7 -27 -7
-31 0 -3 -9 -4 -19 -1 -13 3 -23 -2 -31 -16 -6 -12 -14 -19 -18 -17 -5 3 -23
-17 -41 -44 -27 -40 -31 -52 -22 -68 6 -11 11 -31 11 -44 -1 -70 9 -161 19
-171 6 -6 11 -19 11 -29 0 -10 11 -24 25 -30 13 -6 27 -18 30 -27 3 -9 17 -18
31 -19 33 -3 46 -11 38 -24 -4 -6 1 -8 12 -6 13 2 20 13 22 34 3 27 -2 35 -32
54 -42 25 -46 40 -11 40 l25 0 -20 37 c-22 41 -26 113 -9 141 8 13 20 17 36
14 22 -4 23 -8 18 -58 -4 -50 -3 -54 20 -60 36 -9 45 1 33 39 -6 18 -11 126
-12 247 -1 163 -4 220 -15 235 -11 18 -11 26 4 60 l18 40 7 -30 c3 -16 13 -41
20 -55 16 -28 24 -91 39 -305 13 -181 15 -193 46 -228 39 -45 45 -35 44 71 -1
115 4 183 12 197 14 22 19 73 10 98 -19 49 -8 56 77 49 166 -15 625 -3 692 18
49 14 57 13 63 -12 l6 -22 24 22 c13 12 28 22 34 22 6 0 26 13 44 30 19 16 37
30 42 30 4 0 13 11 19 25 7 15 17 24 25 21 7 -3 18 4 24 15 8 17 13 18 25 8
13 -10 17 -10 25 2 5 8 9 20 9 27 0 25 33 62 55 62 24 0 99 -60 116 -93 8 -13
7 -38 -2 -83 -16 -80 -4 -101 36 -64 25 23 65 35 65 18 0 -4 7 -8 15 -8 9 0
12 6 9 15 -10 25 9 17 41 -18 41 -44 93 -66 146 -62 100 7 169 29 224 71 28
21 37 23 71 15 22 -5 33 -9 27 -10 -7 -1 -13 -8 -13 -16 0 -8 -5 -15 -11 -15
-5 0 -8 -4 -5 -9 4 -5 0 -12 -6 -14 -8 -3 -6 -6 5 -6 9 -1 17 4 17 10 0 6 7 9
15 5 16 -6 19 4 30 89 4 28 15 77 25 110 43 139 53 213 42 283 -7 38 -8 82 -3
102 11 48 11 49 11 58 1 4 7 -8 15 -26 14 -31 17 -33 52 -26 21 4 42 9 46 11
11 6 -12 33 -28 33 -7 0 -23 9 -36 19 -20 16 -22 22 -11 33 10 10 17 10 32 0
20 -12 54 -6 45 9 -3 4 -11 6 -18 3 -8 -3 -26 7 -41 21 -15 14 -36 25 -46 25
-26 0 -34 17 -35 70 -1 25 -5 56 -9 69 -6 16 -5 21 3 17 15 -9 14 17 -1 32
-24 24 -38 91 -44 202 -3 63 -11 121 -16 128 -6 7 -12 35 -13 62 -2 29 -10 56
-19 65 -24 24 -20 32 19 39 46 9 53 25 17 38 -16 6 -34 19 -40 28 -9 15 -5 19
28 29 21 6 51 18 67 26 27 15 27 15 -34 15 -34 0 -64 4 -67 9 -6 9 79 35 149
46 85 13 146 29 152 38 4 6 -7 7 -28 4 -85 -15 -239 -30 -245 -24 -7 7 48 57
75 69 13 5 12 7 -4 8 -11 0 -30 6 -43 13 l-22 13 25 34 c15 20 21 38 16 44 -9
11 -6 105 5 142 3 12 1 25 -5 28 -6 4 -8 20 -4 37 5 25 2 31 -16 36 -25 6 -27
19 -5 31 11 6 14 14 8 23 -5 8 -7 22 -6 32 2 10 -2 24 -8 32 -8 10 -8 19 -1
34 9 16 8 22 -6 30 -14 7 -18 29 -23 112 -3 57 -10 104 -15 106 -15 5 -2 110
19 158 12 27 21 82 27 170 4 72 13 142 18 155 10 25 10 25 17 3 3 -12 16 -23
28 -25 16 -2 22 -11 24 -36 2 -24 10 -36 26 -42 13 -5 26 -15 29 -23 3 -9 16
-17 29 -19 44 -6 72 -119 48 -193 -7 -20 -9 -39 -5 -43 13 -13 23 23 30 112
l7 91 15 -44 c11 -33 13 -64 8 -115 -3 -39 -6 -94 -6 -123 1 -43 -2 -53 -19
-58 -24 -8 -26 -21 -5 -29 20 -7 19 -40 -1 -57 -21 -18 -13 -123 21 -264 14
-55 29 -145 35 -200 7 -55 18 -115 26 -133 7 -19 11 -44 8 -57 -6 -26 5 -38
25 -26 10 7 13 58 12 233 -2 191 1 227 14 238 20 16 19 49 -1 57 -14 5 -15 29
-11 195 3 118 9 194 16 201 13 13 15 64 3 69 -4 2 -4 82 -1 178 22 550 22 567
11 574 -7 4 -12 2 -12 -4 0 -7 -6 -10 -14 -7 -15 6 -21 -41 -32 -260 -7 -125
-1 -171 16 -143 15 25 23 -13 17 -86 -5 -59 -17 -103 -17 -61 0 9 -7 20 -16
25 -14 8 -17 40 -18 255 -1 227 -5 271 -23 254 -3 -4 -9 -85 -13 -180 -4 -94
-7 -149 -8 -121 -1 28 -6 97 -12 155 -5 57 -11 135 -14 173 -2 38 -9 72 -15
75 -8 5 -10 72 -7 220 l3 212 -22 -5 c-12 -3 -42 -17 -67 -31 -44 -24 -45 -27
-51 -83 -4 -37 -2 -58 5 -61 25 -9 70 -60 91 -104 20 -42 22 -56 14 -105 -5
-31 -8 -79 -8 -105 1 -26 -6 -58 -13 -70 -8 -12 -24 -47 -35 -78 -12 -30 -27
-63 -34 -72 -11 -16 -15 -15 -49 8 -37 25 -38 28 -40 88 l-2 62 -3 -52 c-4
-48 -6 -53 -27 -53 -20 0 -25 8 -36 48 -6 26 -15 56 -20 68 -4 11 -6 333 -3
715 3 382 2 691 -1 687 -4 -3 -12 -93 -17 -198 -6 -129 -13 -198 -21 -208 -10
-12 -13 -129 -13 -533 1 -383 -2 -515 -11 -509 -6 6 -13 8 -16 5 -3 -3 -31 3
-64 14 l-59 19 1 78 c1 58 9 101 30 164 25 76 28 99 29 215 0 135 -15 218 -92
500 -14 50 -34 131 -44 180 -11 50 -35 131 -54 180 -19 50 -35 95 -35 99 0 4
-17 55 -37 111 -31 89 -41 106 -65 116 -15 6 -28 15 -28 20 0 4 -9 11 -21 14
-11 4 -34 20 -52 36 -57 53 -62 56 -94 73 -44 22 -51 20 -55 -11z m-43 -62 c3
-6 -16 -13 -42 -16 -27 -4 -65 -18 -85 -31 -21 -13 -42 -24 -48 -24 -5 0 -10
-5 -10 -11 0 -7 14 -8 40 -4 23 4 40 3 40 -3 0 -5 -25 -34 -55 -66 -30 -31
-55 -63 -55 -70 0 -8 -3 -23 -7 -33 -4 -13 3 -10 25 11 17 16 31 32 30 35 -2
17 3 20 16 9 12 -11 11 -17 -7 -42 l-20 -28 24 12 c13 7 38 24 56 37 33 26 56
16 31 -14 -12 -15 -9 -16 31 -10 46 6 83 -5 117 -36 14 -12 24 -15 28 -8 4 6
14 3 27 -10 14 -14 18 -26 13 -42 -5 -12 -7 -25 -6 -29 1 -5 -2 -8 -6 -8 -4 0
-8 -10 -8 -22 0 -25 27 -54 73 -79 17 -9 32 -26 36 -38 5 -19 1 -21 -47 -21
-51 0 -146 -25 -146 -39 0 -3 -14 -22 -31 -41 -28 -30 -31 -40 -30 -90 0 -30
3 -67 7 -82 6 -28 19 -37 26 -18 2 7 15 5 36 -6 30 -15 35 -15 58 1 13 8 29
13 33 10 5 -3 42 0 82 7 54 10 73 17 77 30 6 25 35 18 44 -9 7 -26 -16 -220
-33 -278 -7 -22 -14 -43 -15 -47 -1 -5 -2 -11 -3 -15 -2 -5 -6 1 -11 12 -6 13
-7 3 -4 -30 4 -38 3 -46 -5 -35 -9 12 -10 9 -5 -12 4 -18 2 -28 -5 -28 -6 0
-11 -11 -11 -25 0 -14 -10 -39 -21 -55 -18 -24 -27 -27 -54 -23 -26 4 -33 1
-37 -15 -3 -10 -19 -25 -37 -33 -17 -8 -31 -18 -31 -23 0 -4 -7 -5 -16 -2 -9
3 -29 -5 -47 -18 -18 -13 -51 -32 -74 -41 -43 -17 -53 -30 -31 -37 8 -3 1 -20
-19 -50 -17 -26 -29 -49 -25 -52 13 -14 38 -4 57 24 15 20 25 26 35 20 11 -7
12 -14 2 -35 -7 -14 -12 -36 -12 -48 0 -13 -4 -27 -9 -33 -6 -5 -13 -29 -16
-54 -5 -33 -4 -41 4 -30 6 8 11 11 11 7 0 -4 15 3 33 17 19 15 37 26 41 26 4
0 4 -20 0 -45 -7 -48 8 -80 32 -71 7 3 16 1 19 -4 4 -6 14 -10 25 -10 10 0 21
-7 24 -15 10 -28 -18 -55 -71 -71 -65 -19 -69 -29 -8 -20 55 9 56 1 15 -66
-16 -26 -30 -50 -30 -53 0 -3 -22 -37 -50 -77 -27 -40 -50 -78 -50 -85 0 -7
-4 -13 -9 -13 -12 0 -55 57 -65 84 -4 11 -32 59 -63 108 -30 48 -53 94 -50
102 3 8 -5 19 -20 27 -26 14 -144 184 -158 227 -3 12 -8 105 -9 205 -2 168 -5
186 -27 237 -23 52 -24 66 -24 240 0 102 3 205 7 230 4 25 4 38 1 30 -3 -8
-13 -25 -22 -36 -17 -21 -17 -21 -16 16 0 21 3 36 6 34 3 -2 12 16 19 39 20
68 41 130 51 152 5 11 20 50 32 88 13 37 27 64 32 60 4 -5 5 -2 1 4 -9 17 18
95 49 141 14 20 25 41 25 46 0 18 72 96 116 127 74 51 193 85 209 60z m258
-150 c27 -10 82 -90 93 -136 7 -28 6 -29 -9 -13 -9 9 -17 21 -17 26 0 12 -67
72 -79 72 -13 0 -8 -25 8 -44 7 -9 10 -16 6 -16 -12 0 -46 42 -60 75 -12 26
-11 31 3 37 24 9 28 9 55 -1z m117 -215 c6 -17 21 -53 32 -81 30 -75 35 -109
8 -60 -12 22 -31 52 -41 67 -11 14 -19 30 -19 35 0 4 -9 19 -20 33 -25 33 -25
38 4 38 18 0 27 -8 36 -32z m-137 -257 c13 -6 31 -24 41 -40 17 -28 17 -29 -3
-29 -12 0 -21 4 -21 9 0 9 -98 31 -143 31 -37 0 -31 7 20 25 47 17 75 18 106
4z m94 -611 c-2 -13 -4 -5 -4 17 -1 22 1 32 4 23 2 -10 2 -28 0 -40z m70 -276
c-9 -56 -30 -93 -44 -79 -3 4 3 31 15 60 12 29 22 64 22 77 0 17 3 21 9 12 4
-7 4 -39 -2 -70z m670 -429 c-3 -10 -5 -2 -5 17 0 19 2 27 5 18 2 -10 2 -26 0
-35z m53 -159 c0 -8 -4 -14 -10 -14 -5 0 -10 9 -10 21 0 11 5 17 10 14 6 -3
10 -13 10 -21z m62 -412 c-4 -187 -13 -282 -28 -282 -22 0 -19 277 3 346 10
29 20 50 22 48 3 -2 4 -53 3 -112z m-620 36 c35 -38 71 -105 65 -121 -3 -7
-11 3 -19 22 -9 20 -18 29 -22 22 -4 -6 -4 -15 -1 -21 3 -5 1 -10 -5 -10 -7 0
-9 12 -5 33 5 26 2 37 -18 55 -14 13 -31 23 -38 22 -27 -4 -40 0 -34 10 11 17
-22 11 -46 -9 l-23 -18 23 -8 c19 -6 21 -9 10 -17 -11 -7 -10 -8 4 -6 10 2 18
8 18 13 -1 13 51 27 61 17 11 -11 -25 -78 -40 -74 -7 1 -11 -3 -9 -9 1 -7 -11
-13 -28 -14 -16 -1 -38 -5 -48 -9 -9 -5 -29 -6 -43 -3 -35 6 -48 -24 -37 -88
l8 -49 50 -2 c28 -1 60 -3 73 -3 13 -1 20 -5 17 -11 -4 -6 -14 -8 -24 -5 -14
4 -17 -1 -17 -30 0 -25 4 -35 16 -35 16 0 50 33 50 50 0 6 9 10 20 10 17 0 18
-3 10 -26 -6 -14 -10 -37 -10 -50 0 -14 -4 -22 -10 -19 -5 3 -18 1 -27 -4 -14
-8 -9 -10 27 -11 25 0 52 5 60 11 13 8 12 12 -7 26 -28 19 -30 49 -5 55 15 4
18 1 14 -21 l-4 -26 22 30 c21 28 22 29 15 5 -16 -60 -16 -66 -4 -42 7 12 16
22 21 22 4 0 9 10 9 23 1 15 3 17 6 5 7 -27 -24 -74 -61 -92 -68 -32 -137 -18
-199 42 -58 55 -81 106 -82 177 0 113 88 215 187 215 43 0 54 -4 80 -32z m-92
-8 c0 -5 -7 -10 -15 -10 -8 0 -15 5 -15 10 0 6 7 10 15 10 8 0 15 -4 15 -10z
m637 -122 c-3 -7 -5 -2 -5 12 0 14 2 19 5 13 2 -7 2 -19 0 -25z m11 -149 c-3
-20 -5 -19 -9 9 -3 20 -2 29 4 23 5 -5 7 -19 5 -32z m-2343 -759 c3 -5 -1 -10
-9 -10 -8 0 -18 5 -21 10 -3 6 1 10 9 10 8 0 18 -4 21 -10z m1895 -229 c0 -22
-56 -61 -88 -61 -20 0 -37 -25 -27 -41 6 -9 28 -7 58 6 10 4 20 5 23 2 5 -4
-78 -57 -90 -57 -3 0 -6 22 -6 48 0 47 2 50 38 66 20 9 48 26 62 36 31 24 30
24 30 1z m0 -75 c0 -3 -4 -8 -10 -11 -5 -3 -10 -1 -10 4 0 6 5 11 10 11 6 0
10 -2 10 -4z m-2013 -98 c-3 -8 -6 -5 -6 6 -1 11 2 17 5 13 3 -3 4 -12 1 -19z
m49 -733 c3 -19 3 -42 0 -52 -12 -31 -34 7 -29 50 6 47 20 48 29 2z m-97 -604
c-17 -38 -32 -41 -18 -5 13 36 20 46 26 40 3 -3 -1 -19 -8 -35z"/>
<path d="M2657 8523 c-4 -3 -7 -11 -7 -17 0 -6 5 -5 12 2 6 6 9 14 7 17 -3 3
-9 2 -12 -2z"/>
<path d="M2707 8393 c-4 -3 -7 -16 -7 -28 0 -13 -7 -28 -16 -35 -8 -8 -21 -28
-29 -47 -8 -19 -19 -31 -27 -28 -16 6 -36 -23 -67 -95 -13 -30 -36 -82 -51
-115 -26 -55 -50 -126 -50 -149 0 -5 10 0 23 12 28 27 101 44 134 31 14 -5 29
-7 34 -4 5 4 24 -1 42 -10 39 -18 70 -11 101 24 29 32 12 69 -38 86 -37 13
-44 12 -125 -21 -98 -39 -111 -35 -91 26 22 67 31 74 93 74 50 1 59 -2 91 -33
20 -19 36 -30 36 -24 0 7 10 13 23 15 13 2 23 11 25 24 4 27 -41 50 -116 60
-28 3 -52 8 -52 10 0 1 18 38 39 82 28 54 39 90 38 115 -1 20 -2 37 -3 37 0 0
-4 -3 -7 -7z m-111 -233 c-20 -22 -36 -38 -36 -35 0 11 31 66 48 86 14 17 18
17 20 4 2 -9 -12 -34 -32 -55z"/>
<path d="M2506 8197 c-8 -35 -19 -72 -22 -82 -5 -12 -4 -16 3 -12 11 7 53 124
53 147 0 5 -4 10 -9 10 -5 0 -16 -29 -25 -63z"/>
<path d="M2937 7853 c-12 -11 -7 -67 7 -85 7 -10 21 -18 30 -18 9 0 16 -6 16
-14 0 -15 -35 -11 -57 7 -9 7 -13 4 -13 -8 0 -10 -8 -32 -19 -49 -10 -17 -22
-41 -25 -52 -6 -20 -3 -21 54 -20 55 1 70 -6 70 -30 0 -3 -51 -4 -112 -2 -62
2 -132 -1 -155 -5 -39 -8 -43 -7 -43 11 0 22 26 79 48 104 19 23 26 88 8 88
-18 0 -116 -193 -116 -228 0 -38 6 -43 37 -27 14 7 33 10 42 6 74 -33 89 -42
100 -55 7 -8 32 -23 57 -32 40 -15 59 -34 34 -34 -5 0 -10 -4 -10 -10 0 -5 7
-7 15 -4 8 4 17 -1 21 -10 7 -18 34 -22 34 -5 0 5 19 19 43 29 66 29 81 51 81
118 0 95 -62 282 -93 282 -4 0 -13 11 -19 25 -12 25 -23 31 -35 18z m-29 -328
c-4 -14 -109 -10 -137 5 -16 8 -20 15 -12 19 16 11 153 -12 149 -24z"/>
<path d="M3241 7654 c0 -11 3 -14 6 -6 3 7 2 16 -1 19 -3 4 -6 -2 -5 -13z"/>
<path d="M2727 6973 c-9 -9 -9 -75 1 -88 4 -5 18 -19 31 -30 l24 -20 -7 30
c-3 17 -8 39 -10 50 -9 55 -22 75 -39 58z"/>
<path d="M2885 6671 c-21 -4 -26 -9 -17 -15 16 -10 62 1 62 14 0 11 0 11 -45
1z"/>
<path d="M3350 6179 c0 -5 5 -7 10 -4 6 3 10 8 10 11 0 2 -4 4 -10 4 -5 0 -10
-5 -10 -11z"/>
<path d="M3753 8557 c1 -209 4 -267 16 -267 7 0 3 226 -8 370 -7 92 -8 79 -8
-103z"/>
<path d="M6077 8483 c-4 -3 -7 -14 -7 -24 0 -21 -18 -29 -52 -22 -18 3 -33 -2
-48 -17 -12 -12 -28 -19 -37 -16 -8 3 -27 0 -41 -8 -15 -8 -35 -17 -45 -20
-14 -5 -16 -10 -7 -25 10 -20 4 -51 -10 -51 -6 0 -6 -127 1 -140 3 -6 6 -28 8
-58 0 -14 5 -20 12 -17 6 4 9 21 8 39 -4 45 6 58 36 44 17 -8 27 -25 37 -60 7
-28 18 -53 25 -55 17 -7 17 -43 1 -43 -7 0 -21 -12 -32 -26 -14 -20 -16 -28
-6 -37 10 -9 14 -9 17 1 5 12 43 18 43 6 0 -3 -13 -19 -30 -34 -17 -16 -30
-38 -30 -52 0 -30 -17 -48 -46 -48 -12 0 -25 -6 -27 -12 -5 -12 -9 8 -11 59
-2 36 -14 37 -21 1 -4 -18 -16 -42 -26 -54 -20 -21 -20 -22 1 -73 11 -28 20
-63 20 -76 0 -14 5 -25 10 -25 6 0 10 13 10 29 0 15 9 40 20 54 11 14 20 34
20 45 0 25 60 62 100 62 47 0 63 -35 58 -120 -3 -38 -1 -70 4 -70 4 0 8 12 8
28 0 15 4 43 10 62 5 19 11 70 14 113 2 43 9 84 16 92 7 9 9 26 5 45 -4 19 -2
36 5 45 8 10 10 28 5 51 -3 21 -2 48 5 63 9 23 16 27 41 23 25 -4 28 -2 22 14
-4 10 -8 13 -10 7 -2 -6 -13 -9 -24 -6 -22 6 -34 42 -25 78 4 14 3 33 -2 43
-5 9 -6 46 -2 82 9 89 0 127 -23 103z m-36 -103 c22 -12 25 -52 5 -69 -7 -6
-27 -8 -45 -5 -27 6 -31 11 -31 39 0 42 29 57 71 35z"/>
<path d="M5580 8262 c-41 -20 -78 -42 -83 -49 -4 -7 -13 -10 -21 -7 -20 8
-106 -33 -106 -51 0 -9 -4 -14 -9 -11 -5 3 -11 -4 -15 -17 -9 -34 -7 -49 6
-41 8 5 9 -5 3 -37 -5 -24 -9 -154 -9 -289 -1 -135 -5 -251 -9 -257 -11 -18
-6 -16 44 11 24 14 87 39 139 56 52 17 101 36 108 42 7 6 12 27 11 47 0 20 6
124 15 231 9 107 17 238 20 291 2 54 7 102 10 108 13 21 -28 10 -104 -27z
m-100 -682 c0 -5 -7 -10 -15 -10 -8 0 -15 5 -15 10 0 6 7 10 15 10 8 0 15 -4
15 -10z"/>
<path d="M6138 8293 c7 -3 16 -2 19 1 4 3 -2 6 -13 5 -11 0 -14 -3 -6 -6z"/>
<path d="M3762 8256 c1 -13 6 -22 10 -20 11 7 10 32 -2 39 -6 3 -9 -4 -8 -19z"/>
<path d="M3758 8189 c-3 -19 1 -36 9 -45 8 -8 10 -14 4 -14 -6 0 -10 -13 -9
-29 2 -29 18 -34 18 -5 0 24 68 22 106 -2 16 -11 33 -14 56 -8 18 4 67 8 108
9 41 1 90 6 108 11 35 9 44 29 14 29 -9 1 -22 4 -28 7 -5 4 -35 10 -65 14 -30
4 -63 11 -74 17 -10 5 -58 11 -106 11 -67 1 -92 6 -107 19 -25 23 -29 22 -34
-14z"/>
<path d="M4218 8083 c7 -3 16 -2 19 1 4 3 -2 6 -13 5 -11 0 -14 -3 -6 -6z"/>
<path d="M5840 8054 c0 -8 5 -12 10 -9 6 3 10 10 10 16 0 5 -4 9 -10 9 -5 0
-10 -7 -10 -16z"/>
<path d="M5292 8000 c0 -14 2 -19 5 -12 2 6 2 18 0 25 -3 6 -5 1 -5 -13z"/>
<path d="M4818 7946 c-53 -24 -107 -51 -120 -60 -12 -9 -28 -16 -36 -16 -7 0
-46 -16 -86 -36 -41 -19 -80 -37 -87 -38 -8 -2 -31 -10 -51 -20 -21 -9 -42
-16 -48 -16 -5 0 -10 -4 -10 -9 0 -6 -13 -18 -29 -27 -31 -18 -49 -70 -31 -88
5 -5 10 -29 10 -53 0 -56 17 -137 41 -195 10 -26 19 -63 19 -82 0 -20 4 -36 9
-36 5 0 12 -26 16 -57 7 -64 35 -162 66 -231 11 -24 23 -60 26 -78 6 -37 5
-37 166 -50 l77 -6 15 36 c8 19 15 42 15 50 0 9 -36 45 -80 82 -89 73 -93 83
-60 157 24 55 66 92 123 109 23 7 48 18 55 25 7 7 22 13 33 13 10 0 28 9 39
20 17 17 19 28 14 56 -4 21 -1 52 6 75 10 30 11 42 2 51 -9 9 -7 17 7 32 11
12 21 39 23 60 3 35 7 41 38 51 53 18 52 51 -4 136 -42 63 -46 74 -46 129 0
33 -3 60 -7 60 -5 0 -52 -20 -105 -44z"/>
<path d="M5825 7949 c-10 -15 3 -25 16 -12 7 7 7 13 1 17 -6 3 -14 1 -17 -5z"/>
<path d="M4310 7900 c-14 -27 -7 -36 27 -35 23 0 29 5 31 28 3 23 0 27 -22 27
-15 0 -30 -8 -36 -20z"/>
<path d="M6258 7790 c-4 -30 -8 -71 -8 -90 1 -28 2 -32 11 -18 5 10 9 50 7 90
l-3 73 -7 -55z"/>
<path d="M4372 7793 c-12 -2 -20 -9 -17 -14 9 -14 35 -11 51 6 16 16 13 17
-34 8z"/>
<path d="M5730 7790 c0 -5 7 -10 16 -10 8 0 12 5 9 10 -3 6 -10 10 -16 10 -5
0 -9 -4 -9 -10z"/>
<path d="M4287 7746 c-4 -11 2 -14 24 -14 32 1 38 12 13 22 -24 9 -31 7 -37
-8z"/>
<path d="M6965 7663 c-4 -21 -13 -96 -20 -168 -7 -72 -20 -146 -29 -165 -9
-19 -14 -28 -12 -18 4 13 -4 17 -45 20 -27 1 -49 1 -49 -2 1 -32 94 -51 208
-42 47 4 67 1 80 -11 14 -12 72 -22 72 -12 0 1 -7 18 -15 38 -17 40 -30 47
-91 47 -37 0 -44 3 -44 19 0 10 7 21 15 25 8 3 15 15 15 26 0 15 7 20 25 20
15 0 25 6 25 15 0 25 -22 64 -40 70 -13 4 -19 20 -22 58 -4 49 -38 117 -59
117 -4 0 -10 -17 -14 -37z"/>
<path d="M6713 7678 c-21 -27 -35 -107 -29 -164 4 -36 2 -62 -5 -71 -9 -10 -7
-18 6 -33 27 -29 32 -25 38 31 4 28 11 57 17 63 5 7 8 37 5 66 -5 61 5 80 44
81 l26 0 -25 11 c-14 5 -33 14 -42 19 -23 12 -24 11 -35 -3z"/>
<path d="M6240 7619 c0 -11 5 -17 10 -14 6 3 10 13 10 21 0 8 -4 14 -10 14 -5
0 -10 -9 -10 -21z"/>
<path d="M4162 7590 c0 -19 2 -27 5 -17 2 9 2 25 0 35 -3 9 -5 1 -5 -18z"/>
<path d="M7132 7212 c-14 -4 -16 -32 -2 -32 6 0 10 -12 10 -27 0 -20 -3 -24
-9 -15 -17 27 -71 -59 -71 -114 0 -6 10 -19 21 -30 12 -10 35 -43 51 -71 17
-29 34 -53 38 -53 4 0 13 23 20 50 10 43 15 50 31 45 11 -4 19 -2 19 4 0 6 -5
11 -11 11 -8 0 -10 18 -5 61 6 62 -14 151 -38 166 -13 8 -38 11 -54 5z"/>
<path d="M7210 6945 c0 -2 9 -9 20 -15 16 -9 20 -8 20 5 0 8 -9 15 -20 15 -11
0 -20 -2 -20 -5z"/>
<path d="M7263 6644 c-11 -28 18 -45 71 -42 73 4 69 29 -7 44 -49 10 -59 9
-64 -2z"/>
<path d="M4121 6524 c0 -11 3 -14 6 -6 3 7 2 16 -1 19 -3 4 -6 -2 -5 -13z"/>
<path d="M5830 6521 c0 -15 6 -21 21 -21 25 0 22 33 -4 38 -12 2 -17 -3 -17
-17z"/>
<path d="M4947 6523 c-3 -5 -6 -98 -8 -208 l-4 -200 125 -12 c69 -7 130 -10
137 -8 8 2 13 31 15 77 l3 73 28 -3 c45 -5 103 16 121 44 12 16 16 39 13 67
-3 36 -5 39 -12 19 -5 -15 -10 -20 -15 -12 -4 7 -10 1 -13 -17 -12 -52 -29
-64 -81 -57 l-46 7 0 52 c0 46 -3 53 -22 58 -12 4 -23 5 -25 4 -1 -2 -7 -57
-14 -122 -6 -66 -12 -121 -13 -122 0 0 -28 2 -61 5 l-60 7 0 55 0 55 50 0 c49
0 50 1 50 30 0 28 -3 30 -53 38 l-53 9 3 46 3 47 53 6 c63 8 71 14 50 35 -25
25 -160 46 -171 27z"/>
<path d="M5467 6459 c-9 -6 -14 -15 -11 -21 4 -7 2 -8 -4 -4 -23 14 -44 -90
-24 -121 4 -6 37 -34 72 -60 54 -40 66 -54 68 -82 4 -38 -20 -71 -52 -71 -33
0 -66 28 -66 56 0 19 -5 24 -25 24 -36 0 -34 -46 4 -87 33 -36 60 -46 116 -41
52 4 80 42 78 105 -2 54 -23 88 -72 114 -57 30 -91 69 -91 103 1 38 35 66 76
62 23 -2 31 -10 40 -37 8 -22 19 -35 33 -37 32 -5 27 31 -10 73 -26 30 -37 35
-73 35 -22 0 -49 -5 -59 -11z"/>
<path d="M5828 6415 c3 -34 0 -50 -11 -63 -100 -105 -127 -152 -127 -217 0
-54 17 -98 54 -142 28 -33 27 -53 0 -53 -10 0 -14 -8 -12 -22 3 -24 34 -34
118 -39 39 -3 45 -1 45 16 0 11 -10 24 -22 30 -24 10 -31 39 -13 50 6 4 8 16
4 27 -5 17 7 34 61 84 64 59 75 84 37 84 -9 -1 -37 -21 -62 -46 -25 -25 -58
-48 -73 -51 -15 -3 -34 -14 -41 -25 -14 -20 -14 -20 -35 1 -26 26 -29 115 -5
149 21 31 34 27 34 -10 1 -19 10 -45 23 -60 l23 -28 27 26 c26 24 27 29 27
120 0 75 -3 96 -15 100 -17 7 -21 69 -5 79 19 12 10 35 -14 35 -22 0 -23 -3
-18 -45z"/>
<path d="M6075 6420 c-2 -4 -9 -65 -15 -136 -5 -71 -13 -166 -16 -211 -6 -68
-4 -83 7 -83 8 0 59 -7 113 -15 55 -8 101 -15 103 -15 1 0 3 8 3 18 0 32 12
32 46 2 57 -49 172 -54 220 -9 33 30 43 74 51 204 7 123 -1 152 -56 197 -58
49 -168 44 -207 -9 -39 -53 -44 -71 -50 -195 -3 -67 -7 -129 -9 -135 -4 -12
-56 -11 -124 3 l-24 5 8 157 c4 86 8 170 9 186 1 24 -4 31 -26 37 -16 4 -30 4
-33 -1z m412 -106 c26 -26 26 -27 19 -136 -7 -121 -23 -164 -65 -175 -34 -8
-73 8 -89 37 -14 28 -8 190 9 247 18 58 81 72 126 27z"/>
<path d="M7353 6394 c-8 -22 15 -43 27 -24 5 8 10 21 10 28 0 17 -30 15 -37
-4z"/>
<path d="M6640 6383 c-16 -4 -32 -127 -47 -364 l-6 -97 33 -7 c17 -4 36 -3 41
2 5 5 14 66 20 134 6 68 14 128 18 132 7 7 38 -63 97 -222 24 -66 27 -69 62
-74 20 -2 41 -1 46 4 5 4 17 108 27 231 14 172 15 224 6 230 -16 10 -64 10
-71 0 -2 -4 -10 -64 -16 -132 -6 -69 -15 -128 -19 -133 -7 -7 -34 55 -92 208
-12 33 -26 65 -31 71 -10 13 -45 21 -68 17z"/>
<path d="M5950 6063 c-14 -16 -31 -39 -38 -51 -12 -22 -12 -23 10 -17 13 4 36
20 53 36 26 26 28 30 14 44 -13 14 -18 12 -39 -12z"/>
<path d="M4932 6055 c0 -16 2 -22 5 -12 2 9 2 23 0 30 -3 6 -5 -1 -5 -18z"/>
<path d="M5004 6063 c-3 -10 -10 -28 -15 -41 -13 -32 -12 -34 9 -23 13 7 23 6
30 -1 14 -14 16 1 6 51 -7 34 -22 41 -30 14z"/>
<path d="M5063 6035 c-1 -19 3 -35 8 -35 5 0 9 13 9 29 0 16 6 32 13 34 6 3 3
6 -8 6 -16 1 -20 -6 -22 -34z"/>
<path d="M5148 6053 c6 -2 18 -2 25 0 6 3 1 5 -13 5 -14 0 -19 -2 -12 -5z"/>
<path d="M5094 6039 c-3 -6 -1 -16 5 -22 8 -8 11 -5 11 11 0 24 -5 28 -16 11z"/>
<path d="M4930 6010 c0 -5 5 -10 11 -10 5 0 7 5 4 10 -3 6 -8 10 -11 10 -2 0
-4 -4 -4 -10z"/>
<path d="M5210 6001 c0 -25 6 -27 13 -6 4 8 2 17 -3 20 -6 4 -10 -3 -10 -14z"/>
<path d="M5080 5990 c-24 -8 -23 -8 8 -9 20 -1 31 3 27 9 -3 6 -7 10 -8 9 -1
-1 -13 -5 -27 -9z"/>
<path d="M6241 5884 c0 -11 3 -14 6 -6 3 7 2 16 -1 19 -3 4 -6 -2 -5 -13z"/>
<path d="M6521 5845 c1 -28 4 -39 6 -25 3 14 10 28 17 32 8 5 6 12 -6 25 -17
16 -18 15 -17 -32z"/>
<path d="M6582 5860 c-1 -15 -6 -30 -12 -36 -5 -5 -6 -15 0 -24 14 -23 22 -6
17 41 -2 24 -4 33 -5 19z"/>
<path d="M6643 5825 c0 -22 2 -30 4 -17 2 12 2 30 0 40 -3 9 -5 -1 -4 -23z"/>
<path d="M6711 5814 c0 -11 3 -14 6 -6 3 7 2 16 -1 19 -3 4 -6 -2 -5 -13z"/>
<path d="M6821 5794 c0 -11 3 -14 6 -6 3 7 2 16 -1 19 -3 4 -6 -2 -5 -13z"/>
<path d="M5178 4828 c1 -46 5 -94 8 -107 9 -41 23 -10 30 66 4 42 11 70 16 67
6 -4 7 -19 4 -35 -4 -24 2 -65 33 -204 4 -19 10 -26 14 -18 5 7 4 21 -1 30 -5
10 -8 23 -6 28 2 6 8 46 13 90 8 68 7 82 -6 97 -9 10 -21 18 -28 18 -6 0 -22
11 -35 25 -39 41 -45 33 -42 -57z"/>
<path d="M4173 4844 c-3 -8 -1 -29 3 -47 8 -25 17 -33 44 -39 19 -4 76 -17
125 -28 50 -11 174 -35 277 -53 163 -28 188 -31 193 -17 4 8 2 16 -4 18 -5 2
-8 9 -5 17 3 7 0 16 -6 20 -25 16 -566 145 -608 145 -7 0 -15 -7 -19 -16z"/>
<path d="M5387 4763 c-4 -3 -7 -20 -7 -37 l1 -31 15 25 15 25 -5 -32 c-4 -25
-1 -35 13 -43 23 -12 38 3 47 46 5 26 2 31 -28 42 -40 14 -42 14 -51 5z"/>
<path d="M5653 4627 c1 -25 6 -37 19 -40 23 -7 85 8 104 24 14 11 12 14 -10
26 -14 7 -45 16 -70 19 l-44 6 1 -35z"/>
<path d="M5400 4614 l0 -36 24 23 c22 21 23 24 8 36 -26 20 -32 16 -32 -23z"/>
<path d="M6278 4641 c-26 -4 -50 -10 -54 -13 -11 -12 5 -40 26 -45 22 -6 26
-18 10 -28 -15 -9 -12 -25 5 -25 9 0 18 6 21 14 8 22 92 78 99 66 4 -6 11 -8
16 -5 5 4 9 1 9 -5 0 -6 5 -8 10 -5 20 12 9 31 -23 43 -36 13 -46 13 -119 3z"/>
<path d="M5962 4588 c2 -13 9 -23 17 -23 7 0 17 10 22 23 7 19 5 22 -17 22
-21 0 -25 -4 -22 -22z"/>
<path d="M4179 4178 l-23 -31 33 19 c46 27 59 44 33 44 -12 0 -30 -14 -43 -32z"/>
<path d="M3994 4151 c-40 -25 -51 -41 -26 -41 10 0 31 14 47 30 33 34 24 39
-21 11z"/>
<path d="M4220 4121 l-25 -7 24 -7 c26 -6 41 -2 41 14 0 10 -4 10 -40 0z"/>
<path d="M1300 4106 c0 -2 14 -6 30 -8 17 -3 30 -1 30 4 0 4 -13 8 -30 8 -16
0 -30 -2 -30 -4z"/>
<path d="M4142 3983 c-40 -14 -70 -28 -68 -30 5 -5 130 33 154 47 31 18 -9 10
-86 -17z"/>
<path d="M1520 3919 c0 -11 5 -19 12 -17 17 6 19 38 2 38 -8 0 -14 -9 -14 -21z"/>
<path d="M4252 3931 c2 -7 7 -12 11 -12 12 1 9 15 -3 20 -7 2 -11 -2 -8 -8z"/>
<path d="M1564 3884 c3 -9 6 -20 6 -26 0 -19 23 -2 27 20 2 17 -2 22 -18 22
-15 0 -19 -4 -15 -16z"/>
<path d="M3996 3861 c-4 -7 -5 -15 -2 -18 9 -9 19 4 14 18 -4 11 -6 11 -12 0z"/>
<path d="M4010 3686 c0 -9 5 -16 10 -16 6 0 10 4 10 9 0 6 -4 13 -10 16 -5 3
-10 -1 -10 -9z"/>
<path d="M4254 3582 c-10 -18 -21 -32 -25 -32 -4 0 -7 -37 -7 -82 1 -46 -3
-94 -8 -108 -7 -23 -7 -24 9 -8 9 9 17 23 17 31 0 8 14 20 30 26 33 11 36 24
15 61 -17 30 -19 72 -5 86 7 7 7 20 2 34 l-9 24 -19 -32z"/>
<path d="M2669 3520 c-2 -30 -4 -147 -4 -260 -1 -192 -2 -208 -24 -253 -28
-59 -42 -190 -20 -187 42 6 49 0 49 -42 0 -40 -25 -106 -60 -158 -10 -14 -21
-36 -25 -50 -4 -14 -19 -42 -33 -63 -14 -20 -22 -40 -18 -44 3 -3 6 -1 6 5 0
6 7 9 15 6 8 -4 15 -1 15 4 0 6 16 28 35 49 41 45 46 29 14 -44 -12 -27 -26
-58 -32 -70 -5 -12 -7 -33 -3 -47 4 -15 2 -35 -4 -46 -15 -29 -5 -40 29 -30
25 7 28 6 24 -11 -3 -10 -11 -24 -19 -30 -8 -6 -14 -17 -14 -24 0 -7 -19 -44
-41 -81 -69 -114 -90 -157 -80 -167 5 -5 12 -1 15 11 4 11 18 28 32 36 13 9
32 35 40 56 17 41 47 57 37 20 -3 -11 -12 -20 -20 -20 -10 0 -12 -6 -8 -21 5
-15 -2 -32 -24 -59 -17 -21 -31 -46 -31 -54 0 -14 -12 -20 -32 -17 -5 0 -8 -7
-8 -17 0 -10 -5 -23 -12 -30 -9 -9 -9 -15 0 -24 7 -7 12 -8 12 -2 0 17 87 107
94 96 8 -13 -4 -73 -14 -67 -5 3 -6 -5 -2 -17 3 -14 2 -19 -6 -14 -8 5 -12 -2
-12 -21 0 -18 -12 -39 -30 -57 -25 -25 -30 -26 -30 -11 0 10 -3 15 -7 11 -11
-10 -10 -40 1 -47 5 -4 -1 -10 -13 -14 -18 -5 -21 -12 -17 -33 4 -23 -1 -32
-34 -57 -21 -16 -42 -37 -45 -45 -2 -8 -17 -28 -31 -45 -14 -16 -29 -35 -32
-40 -4 -6 -41 -39 -82 -74 -98 -84 -155 -141 -142 -141 6 0 32 11 58 25 26 14
55 25 66 25 10 0 21 6 24 14 3 8 24 22 46 31 23 9 50 27 60 41 11 13 24 24 30
24 15 0 190 179 184 189 -3 4 13 26 35 51 21 24 39 49 39 57 0 7 5 13 10 13 6
0 10 7 10 15 0 8 4 15 9 15 5 0 18 15 30 33 l21 32 0 -41 c0 -70 -20 -158 -46
-195 -14 -20 -29 -53 -35 -73 -5 -20 -14 -36 -20 -36 -6 0 -8 -3 -6 -7 3 -5
-3 -24 -13 -43 -10 -19 -32 -62 -49 -96 -19 -38 -43 -69 -65 -85 -20 -13 -38
-31 -41 -40 -3 -9 -16 -21 -28 -26 -12 -6 -34 -28 -48 -49 -47 -72 -119 -194
-119 -203 0 -16 52 -22 134 -15 45 3 86 12 91 18 6 7 19 15 29 19 10 4 16 10
13 13 -3 3 3 14 13 24 10 10 22 25 26 33 13 22 49 26 49 6 0 -9 6 -24 14 -33
8 -10 11 -27 8 -46 -6 -27 -4 -30 26 -35 18 -4 165 -5 326 -3 l293 3 24 30
c42 53 26 63 -24 15 l-32 -30 -152 0 c-84 0 -163 3 -175 6 -26 7 -30 32 -7 41
13 5 15 18 9 87 -4 45 -14 97 -22 116 -27 66 -51 230 -33 230 6 0 8 5 4 12 -4
7 -3 8 4 4 7 -4 12 -14 12 -23 0 -12 3 -13 15 -3 8 6 19 9 24 5 17 -10 122 22
147 46 31 29 30 41 -3 62 -16 9 -39 25 -52 36 -23 18 -24 20 -8 36 27 27 20
48 -33 100 -40 39 -50 56 -50 82 0 35 13 43 27 18 14 -24 51 -7 59 27 5 25 1
35 -21 54 -34 29 -57 72 -47 88 4 6 7 85 7 176 0 141 3 169 18 190 23 33 22
92 -2 114 -19 17 -34 54 -66 161 -13 42 -17 86 -16 150 3 109 3 96 -3 227 -2
58 -10 116 -16 128 -8 14 -9 42 -5 79 5 42 2 68 -9 96 -9 20 -16 46 -16 56 0
9 -8 25 -17 35 -10 9 -23 31 -29 48 -7 21 -18 32 -35 34 -34 5 -42 15 -50 64
l-6 43 -4 -55z m-17 -672 c-7 -7 -12 -8 -12 -2 0 6 3 14 7 17 3 4 9 5 12 2 2
-3 -1 -11 -7 -17z m146 -1040 l4 -111 -38 -32 -37 -32 7 -73 c3 -39 12 -82 18
-93 14 -26 11 -167 -4 -205 -6 -16 -12 -22 -15 -14 -6 16 -23 5 -23 -15 0 -9
6 -13 15 -9 9 3 15 0 15 -8 0 -22 -26 -66 -35 -58 -4 4 -3 -3 4 -15 15 -30 14
-33 -11 -30 -25 2 -27 11 -48 152 -5 38 -14 83 -20 100 -20 62 -15 117 17 180
16 33 37 87 46 120 8 33 28 105 43 160 31 116 33 120 48 105 6 -6 12 -57 14
-122z m32 -358 c0 -5 -8 -10 -17 -10 -15 0 -16 2 -3 10 19 12 20 12 20 0z"/>
<path d="M2600 3439 c-10 -6 -11 -9 -2 -9 20 0 14 -17 -9 -23 -17 -5 -20 -11
-17 -32 4 -17 1 -28 -8 -31 -47 -14 -47 -14 -34 -29 7 -9 29 -15 51 -15 24 0
39 -5 39 -12 0 -7 5 -5 11 6 12 19 3 142 -10 150 -4 3 -13 1 -21 -5z"/>
<path d="M2630 3153 c0 -36 -4 -53 -15 -57 -8 -3 -15 -17 -15 -32 0 -22 2 -24
15 -14 8 6 19 9 24 6 6 -4 8 19 4 66 -7 87 -13 101 -13 31z"/>
<path d="M3686 3114 c-11 -28 -6 -39 9 -20 8 11 15 23 15 28 0 14 -18 9 -24
-8z"/>
<path d="M1404 3066 c-8 -22 3 -33 18 -18 9 9 9 15 0 24 -9 9 -13 7 -18 -6z"/>
<path d="M3653 3023 c-12 -43 -13 -73 -3 -73 13 0 34 90 23 101 -6 6 -13 -4
-20 -28z"/>
<path d="M520 2910 c0 -11 159 -92 172 -88 6 2 -7 13 -28 23 -22 11 -55 29
-74 41 -46 27 -70 35 -70 24z"/>
<path d="M3610 2834 c0 -8 5 -12 10 -9 6 4 8 11 5 16 -9 14 -15 11 -15 -7z"/>
<path d="M710 2806 c0 -2 7 -7 16 -10 8 -3 12 -2 9 4 -6 10 -25 14 -25 6z"/>
<path d="M803 2756 c19 -13 46 -27 58 -31 13 -4 2 7 -24 24 -56 36 -87 42 -34
7z"/>
<path d="M3603 2758 c3 -9 -1 -28 -9 -43 -8 -15 -12 -31 -9 -35 7 -11 -15 -60
-27 -60 -4 0 -8 -7 -8 -16 0 -9 -11 -27 -25 -40 -14 -13 -25 -26 -25 -29 0 -4
-22 -32 -50 -63 -27 -31 -50 -60 -50 -64 0 -18 20 -6 63 37 44 43 67 55 67 36
0 -15 -31 -115 -41 -131 -32 -55 -49 -122 -17 -71 7 12 18 21 25 21 22 0 -19
-69 -42 -70 -16 0 -17 -2 -5 -10 12 -7 12 -13 1 -33 -7 -14 -10 -31 -6 -37 4
-7 3 -15 -2 -19 -14 -9 -24 -113 -13 -131 18 -28 30 5 31 84 1 63 4 76 16 72
8 -3 12 -2 9 2 -3 5 4 23 14 40 11 18 22 49 25 70 3 20 7 48 9 62 3 14 12 70
21 125 16 93 31 137 63 176 18 23 12 131 -7 137 -9 3 -12 0 -8 -10z"/>
<path d="M950 2686 c0 -3 9 -10 20 -16 11 -6 20 -8 20 -6 0 3 -9 10 -20 16
-11 6 -20 8 -20 6z"/>
<path d="M8023 2615 c0 -22 2 -30 4 -17 2 12 2 30 0 40 -3 9 -5 -1 -4 -23z"/>
<path d="M1738 2467 c-13 -31 16 -209 42 -257 22 -42 22 -6 0 56 -12 33 -25
95 -28 139 -4 48 -10 73 -14 62z"/>
<path d="M2525 2440 c-3 -5 -1 -10 4 -10 6 0 11 5 11 10 0 6 -2 10 -4 10 -3 0
-8 -4 -11 -10z"/>
<path d="M2530 2326 c0 -2 7 -7 16 -10 8 -3 12 -2 9 4 -6 10 -25 14 -25 6z"/>
<path d="M3500 2114 c0 -8 5 -12 10 -9 6 4 8 11 5 16 -9 14 -15 11 -15 -7z"/>
<path d="M1836 2095 c4 -8 10 -15 15 -15 4 0 6 7 3 15 -4 8 -10 15 -15 15 -4
0 -6 -7 -3 -15z"/>
<path d="M3480 1995 c-7 -18 -17 -25 -35 -25 -16 0 -25 -6 -25 -15 0 -9 -7
-18 -15 -21 -8 -4 -15 -14 -15 -24 0 -10 -11 -40 -24 -67 -49 -100 -59 -154
-21 -123 15 12 21 3 16 -24 -2 -10 29 12 40 28 10 13 30 -4 27 -22 -1 -10 1
-23 5 -29 9 -15 -10 -56 -22 -48 -12 7 -34 -22 -26 -35 3 -5 0 -10 -9 -10 -8
0 -22 -20 -31 -45 -14 -36 -31 -53 -91 -95 -40 -28 -76 -55 -79 -60 -3 -5 -23
-17 -43 -27 -40 -19 -150 -98 -169 -123 -18 -22 -16 -27 12 -32 14 -3 25 -1
25 4 0 5 14 14 30 19 17 6 30 14 30 19 0 8 55 33 66 30 4 -1 16 12 26 29 11
17 26 31 34 31 8 0 14 5 14 10 0 6 11 10 25 10 14 0 25 5 25 10 0 6 7 10 15
10 8 0 15 6 15 13 0 6 15 28 34 47 57 59 63 62 88 49 13 -7 26 -16 29 -22 10
-15 49 3 49 23 0 10 9 21 19 25 28 9 31 45 15 189 -15 136 -24 171 -24 94 0
-28 -6 -50 -15 -58 -12 -10 -15 -10 -15 1 0 11 -2 11 -10 -1 -7 -12 -11 -10
-18 10 -7 18 -6 29 4 41 8 8 14 21 14 27 0 6 7 9 15 6 9 -4 15 0 15 10 0 9 3
16 8 16 12 0 32 52 32 86 0 46 -11 94 -21 94 -5 0 -14 -11 -19 -25z m-80 -245
c0 -5 -4 -10 -10 -10 -5 0 -10 5 -10 10 0 6 5 10 10 10 6 0 10 -4 10 -10z"/>
<path d="M8022 1970 c0 -19 2 -27 5 -17 2 9 2 25 0 35 -3 9 -5 1 -5 -18z"/>
<path d="M3356 1933 c-6 -14 -5 -15 5 -6 7 7 10 15 7 18 -3 3 -9 -2 -12 -12z"/>
<path d="M3615 1700 c-6 -10 53 -45 62 -36 6 6 -37 45 -49 46 -4 0 -9 -4 -13
-10z"/>
<path d="M3760 1626 c20 -20 691 -358 698 -351 3 3 3 6 1 8 -28 18 -663 339
-694 351 -18 6 -18 5 -5 -8z"/>
<path d="M3552 1605 c0 -16 2 -22 5 -12 2 9 2 23 0 30 -3 6 -5 -1 -5 -18z"/>
<path d="M3797 1493 c-12 -12 -7 -21 16 -28 12 -4 25 -7 29 -6 4 0 5 -6 2 -14
-4 -8 -10 -15 -16 -15 -5 0 -6 5 -3 10 3 6 -1 10 -9 10 -14 0 -17 -6 -16 -37
0 -5 8 -8 18 -9 36 -2 41 -4 44 -20 2 -10 15 -18 31 -20 22 -2 26 0 18 13 -10
20 9 43 35 43 11 0 3 9 -20 25 -20 14 -41 25 -45 25 -5 0 -14 7 -21 15 -13 15
-51 20 -63 8z m30 -9 c-3 -3 -12 -4 -19 -1 -8 3 -5 6 6 6 11 1 17 -2 13 -5z"/>
<path d="M3427 1422 c-3 -4 -3 -19 0 -35 5 -23 10 -27 39 -27 27 0 34 4 34 19
0 31 -60 66 -73 43z"/>
<path d="M3706 1194 c23 -19 120 -74 215 -122 96 -49 220 -112 276 -142 57
-29 106 -51 109 -47 3 3 -11 15 -33 27 -21 11 -65 35 -98 54 -33 18 -94 51
-135 73 -175 95 -247 135 -277 154 -17 11 -46 24 -65 29 l-33 9 41 -35z"/>
<path d="M3371 1176 c-6 -16 -15 -49 -18 -73 -5 -36 -3 -43 12 -43 11 0 15 5
12 14 -3 8 -1 31 4 51 6 20 9 46 6 58 -3 20 -4 20 -16 -7z"/>
<path d="M3374 1008 c1 -32 3 -33 51 -38 28 -3 60 -11 73 -19 13 -7 30 -11 39
-9 20 4 -123 98 -148 98 -12 0 -16 -8 -15 -32z"/>
<path d="M4370 845 c0 -2 23 -16 50 -30 61 -31 66 -25 7 10 -43 25 -57 30 -57
20z"/>
<path d="M5330 830 c0 -10 89 -54 96 -48 7 8 -29 35 -63 46 -18 6 -33 7 -33 2z"/>
<path d="M4480 786 c0 -2 7 -7 16 -10 8 -3 12 -2 9 4 -6 10 -25 14 -25 6z"/>
<path d="M2670 745 c-7 -9 -10 -18 -7 -22 8 -7 37 15 37 28 0 14 -16 11 -30
-6z"/>
<path d="M550 734 c0 -9 5 -14 12 -12 18 6 21 28 4 28 -9 0 -16 -7 -16 -16z"/>
<path d="M917 743 c-4 -3 -7 -21 -7 -39 0 -34 -14 -52 -25 -34 -13 20 -53 10
-79 -21 -19 -22 -26 -42 -26 -72 0 -62 10 -72 75 -72 63 -1 57 -10 75 120 7
44 14 90 17 103 5 21 -14 31 -30 15z m-30 -105 c6 -7 8 -30 5 -51 -9 -75 -82
-86 -82 -13 0 57 50 98 77 64z"/>
<path d="M1545 741 c-3 -5 -1 -12 5 -16 12 -7 30 2 30 16 0 12 -27 12 -35 0z"/>
<path d="M1806 738 c-5 -15 -36 -213 -36 -226 0 -10 85 -14 113 -6 24 8 47 56
47 102 0 51 -26 77 -69 67 -31 -7 -31 -6 -31 34 0 38 -16 57 -24 29z m84 -103
c16 -20 5 -77 -19 -99 -16 -14 -23 -15 -41 -6 -19 10 -21 17 -16 53 4 23 12
47 18 54 14 17 43 16 58 -2z"/>
<path d="M2411 728 c-34 -18 -59 -64 -67 -125 -6 -47 -4 -54 19 -77 29 -29 81
-35 120 -15 31 16 37 28 37 72 0 36 -1 37 -34 37 -19 0 -38 -4 -41 -10 -3 -5
3 -10 14 -10 38 0 33 -56 -7 -71 -18 -7 -31 -5 -50 7 -23 15 -24 21 -19 71 7
71 28 103 67 103 19 0 34 -7 42 -20 7 -11 18 -20 25 -20 17 0 16 35 -1 49 -22
18 -78 23 -105 9z"/>
<path d="M347 623 c-10 -60 -17 -112 -17 -116 0 -4 33 -7 73 -5 83 3 94 21 16
26 l-52 3 7 47 c19 136 19 152 4 152 -10 0 -19 -28 -31 -107z"/>
<path d="M1356 708 c-9 -39 -26 -166 -26 -187 0 -19 6 -21 70 -21 56 0 70 3
70 15 0 12 -13 15 -55 15 l-56 0 5 33 c3 17 10 59 16 91 13 76 13 76 -5 76 -8
0 -17 -10 -19 -22z"/>
<path d="M2173 703 c-4 -10 -14 -24 -22 -30 -13 -11 -14 -14 -2 -22 10 -7 12
-22 7 -63 -8 -66 -1 -88 30 -88 27 0 31 12 9 30 -9 7 -13 20 -11 29 2 9 7 33
11 54 4 23 11 37 20 37 8 0 15 7 15 15 0 8 -4 15 -10 15 -5 0 -10 9 -10 20 0
25 -28 27 -37 3z"/>
<path d="M547 666 c-8 -8 -18 -41 -21 -73 -4 -32 -9 -66 -12 -75 -4 -13 0 -18
14 -18 16 0 21 12 31 86 7 48 10 88 8 91 -3 2 -11 -3 -20 -11z"/>
<path d="M647 669 c-42 -25 -60 -106 -31 -147 21 -30 76 -30 106 0 21 21 21
23 5 26 -10 2 -27 -3 -36 -12 -41 -37 -73 16 -47 78 11 27 21 36 39 36 14 0
27 -7 31 -15 7 -19 36 -20 36 -2 0 37 -63 59 -103 36z"/>
<path d="M1009 661 c-29 -24 -18 -39 15 -21 31 16 56 7 56 -20 0 -15 -7 -20
-29 -20 -47 0 -80 -17 -87 -45 -10 -41 10 -54 76 -52 l59 1 7 75 c6 65 4 76
-12 88 -25 18 -58 16 -85 -6z m61 -99 c0 -25 -47 -47 -66 -31 -22 18 1 49 36
49 22 0 30 -5 30 -18z"/>
<path d="M1643 670 c-31 -13 -42 -59 -18 -77 11 -7 26 -13 35 -13 17 0 40 -18
40 -32 0 -4 -9 -12 -20 -18 -16 -8 -27 -7 -50 7 -35 21 -50 11 -25 -17 36 -39
130 -14 123 33 -3 19 -40 46 -81 60 -5 1 -5 10 -2 20 8 20 37 22 65 5 29 -18
39 1 11 23 -25 21 -44 23 -78 9z"/>
<path d="M2015 668 c-47 -27 -68 -101 -41 -143 17 -25 62 -34 100 -19 28 11
17 26 -13 19 -23 -5 -35 -1 -51 15 -28 28 -17 38 45 42 47 3 50 5 53 31 6 53
-44 83 -93 55z m63 -41 c4 -21 -19 -31 -53 -23 -22 6 -24 9 -15 27 14 25 63
23 68 -4z"/>
<path d="M2607 660 c-29 -23 -51 -80 -42 -110 19 -59 87 -69 129 -19 69 82 -6
193 -87 129z m77 -26 c16 -42 -15 -114 -49 -114 -23 0 -45 41 -38 69 12 53 72
84 87 45z"/>
<path d="M2766 618 c-4 -35 -10 -75 -13 -90 -4 -21 -2 -28 11 -28 8 0 18 10
20 23 2 12 8 42 13 66 9 47 30 68 58 58 15 -6 16 -16 10 -78 -6 -58 -5 -71 6
-67 8 2 18 27 22 54 13 75 23 94 51 94 31 0 35 -14 25 -75 -11 -70 -11 -75 5
-75 18 0 23 15 32 88 5 47 3 62 -11 75 -19 19 -38 21 -65 7 -13 -7 -27 -6 -44
2 -19 8 -32 8 -51 0 -15 -7 -27 -8 -30 -2 -4 6 -12 10 -19 10 -9 0 -16 -21
-20 -62z"/>
<path d="M3087 659 c-37 -29 -52 -90 -32 -129 13 -24 22 -30 49 -30 41 0 66 8
66 22 0 6 -11 7 -25 4 -32 -8 -65 9 -65 34 0 16 9 19 53 22 50 3 52 4 55 35 2
23 -3 35 -20 47 -30 21 -50 20 -81 -5z m68 -34 c0 -15 -8 -21 -32 -23 -35 -3
-44 13 -21 36 19 19 53 10 53 -13z"/>
<path d="M3243 673 c-27 -10 -11 -23 27 -23 22 0 40 -4 40 -8 0 -4 -22 -33
-50 -64 -27 -31 -50 -61 -50 -68 0 -7 22 -10 68 -8 75 3 90 20 24 28 l-42 5
55 63 c30 35 53 67 51 71 -5 8 -104 11 -123 4z"/>
<path d="M1527 617 c-4 -29 -10 -67 -13 -85 -5 -25 -3 -32 9 -32 10 0 18 12
21 33 3 17 10 56 15 85 7 46 6 52 -9 52 -13 0 -19 -12 -23 -53z"/>
<path d="M1156 533 c-12 -12 -6 -33 9 -33 8 0 15 6 15 14 0 17 -14 28 -24 19z"/>
<path d="M100 152 l-95 -47 -3 -53 -3 -52 4021 0 4021 0 -3 32 -3 33 -2695 1
-2695 0 -42 27 c-24 15 -43 28 -43 30 0 1 4 17 9 34 8 28 7 33 -11 39 -13 4
-31 -2 -49 -15 -28 -21 -30 -21 -61 -4 -31 17 -101 18 -1143 21 l-1110 2 -95
-48z m2460 -2 c0 -5 -5 -10 -11 -10 -5 0 -7 5 -4 10 3 6 8 10 11 10 2 0 4 -4
4 -10z"/>
</g>
</svg>
