<svg id="visual" viewBox="0 0 1200 200" width="1200" height="200" xmlns="http://www.w3.org/2000/svg" xmlns:xlink="http://www.w3.org/1999/xlink" version="1.1"><path d="M0 229L30 217C60 205 120 181 180 184C240 187 300 217 360 227C420 237 480 227 540 227C600 227 660 237 720 232C780 227 840 207 870 197L900 187L900 0L870 0C840 0 780 0 720 0C660 0 600 0 540 0C480 0 420 0 360 0C300 0 240 0 180 0C120 0 60 0 30 0L0 0Z" fill="#81ced4"></path><path d="M0 349L30 335C60 321 120 293 180 290C240 287 300 309 360 320C420 331 480 331 540 334C600 337 660 343 720 329C780 315 840 281 870 264L900 247L900 185L870 195C840 205 780 225 720 230C660 235 600 225 540 225C480 225 420 235 360 225C300 215 240 185 180 182C120 179 60 203 30 215L0 227Z" fill="#56c1c8"></path><path d="M0 457L30 460C60 463 120 469 180 481C240 493 300 511 360 519C420 527 480 525 540 515C600 505 660 487 720 471C780 455 840 441 870 434L900 427L900 245L870 262C840 279 780 313 720 327C660 341 600 335 540 332C480 329 420 329 360 318C300 307 240 285 180 288C120 291 60 319 30 333L0 347Z" fill="#34a9b1"></path><path d="M0 601L30 601C60 601 120 601 180 601C240 601 300 601 360 601C420 601 480 601 540 601C600 601 660 601 720 601C780 601 840 601 870 601L900 601L900 425L870 432C840 439 780 453 720 469C660 485 600 503 540 513C480 523 420 525 360 517C300 509 240 491 180 479C120 467 60 461 30 458L0 455Z" fill="#2a888f"></path></svg>