<?xml version="1.0" standalone="no"?>
<svg xmlns:xlink="http://www.w3.org/1999/xlink" id="wave" style="transform:rotate(0deg); transition: 0.3s" viewBox="0 0 1440 120" version="1.1" xmlns="http://www.w3.org/2000/svg"><defs><linearGradient id="sw-gradient-0" x1="0" x2="0" y1="1" y2="0"><stop stop-color="rgba(62, 243, 212.344, 1)" offset="0%"/><stop stop-color="rgba(11, 255, 246.735, 1)" offset="100%"/></linearGradient></defs><path style="transform:translate(0, 0px); opacity:1" fill="url(#sw-gradient-0)" d="M0,36L240,48C480,60,960,84,1440,86C1920,88,2400,68,2880,52C3360,36,3840,24,4320,28C4800,32,5280,52,5760,50C6240,48,6720,24,7200,18C7680,12,8160,24,8640,34C9120,44,9600,52,10080,62C10560,72,11040,84,11520,82C12000,80,12480,64,12960,64C13440,64,13920,80,14400,74C14880,68,15360,40,15840,24C16320,8,16800,4,17280,10C17760,16,18240,32,18720,36C19200,40,19680,32,20160,32C20640,32,21120,40,21600,46C22080,52,22560,56,23040,48C23520,40,24000,20,24480,18C24960,16,25440,32,25920,36C26400,40,26880,32,27360,40C27840,48,28320,72,28800,86C29280,100,29760,104,30240,92C30720,80,31200,52,31680,52C32160,52,32640,80,33120,86C33600,92,34080,76,34320,68L34560,60L34560,120L34320,120C34080,120,33600,120,33120,120C32640,120,32160,120,31680,120C31200,120,30720,120,30240,120C29760,120,29280,120,28800,120C28320,120,27840,120,27360,120C26880,120,26400,120,25920,120C25440,120,24960,120,24480,120C24000,120,23520,120,23040,120C22560,120,22080,120,21600,120C21120,120,20640,120,20160,120C19680,120,19200,120,18720,120C18240,120,17760,120,17280,120C16800,120,16320,120,15840,120C15360,120,14880,120,14400,120C13920,120,13440,120,12960,120C12480,120,12000,120,11520,120C11040,120,10560,120,10080,120C9600,120,9120,120,8640,120C8160,120,7680,120,7200,120C6720,120,6240,120,5760,120C5280,120,4800,120,4320,120C3840,120,3360,120,2880,120C2400,120,1920,120,1440,120C960,120,480,120,240,120L0,120Z"/></svg>