<?xml version="1.0" standalone="no"?>
<svg xmlns:xlink="http://www.w3.org/1999/xlink" id="wave" style="transform:rotate(0deg); transition: 0.3s" viewBox="0 0 1440 140" version="1.1" xmlns="http://www.w3.org/2000/svg"><defs><linearGradient id="sw-gradient-0" x1="0" x2="0" y1="1" y2="0"><stop stop-color="rgba(62, 243, 212.344, 1)" offset="0%"/><stop stop-color="rgba(11, 255, 246.735, 1)" offset="100%"/></linearGradient></defs><path style="transform:translate(0, 0px); opacity:1" fill="url(#sw-gradient-0)" d="M0,70L60,72.3C120,75,240,79,360,79.3C480,79,600,75,720,81.7C840,89,960,107,1080,105C1200,103,1320,79,1440,60.7C1560,42,1680,28,1800,23.3C1920,19,2040,23,2160,37.3C2280,51,2400,75,2520,70C2640,65,2760,33,2880,32.7C3000,33,3120,65,3240,84C3360,103,3480,107,3600,100.3C3720,93,3840,75,3960,70C4080,65,4200,75,4320,84C4440,93,4560,103,4680,91C4800,79,4920,47,5040,39.7C5160,33,5280,51,5400,67.7C5520,84,5640,98,5760,88.7C5880,79,6000,47,6120,30.3C6240,14,6360,14,6480,28C6600,42,6720,70,6840,79.3C6960,89,7080,79,7200,74.7C7320,70,7440,70,7560,63C7680,56,7800,42,7920,39.7C8040,37,8160,47,8280,49C8400,51,8520,47,8580,44.3L8640,42L8640,140L8580,140C8520,140,8400,140,8280,140C8160,140,8040,140,7920,140C7800,140,7680,140,7560,140C7440,140,7320,140,7200,140C7080,140,6960,140,6840,140C6720,140,6600,140,6480,140C6360,140,6240,140,6120,140C6000,140,5880,140,5760,140C5640,140,5520,140,5400,140C5280,140,5160,140,5040,140C4920,140,4800,140,4680,140C4560,140,4440,140,4320,140C4200,140,4080,140,3960,140C3840,140,3720,140,3600,140C3480,140,3360,140,3240,140C3120,140,3000,140,2880,140C2760,140,2640,140,2520,140C2400,140,2280,140,2160,140C2040,140,1920,140,1800,140C1680,140,1560,140,1440,140C1320,140,1200,140,1080,140C960,140,840,140,720,140C600,140,480,140,360,140C240,140,120,140,60,140L0,140Z"/></svg>